<svg xmlns="http://www.w3.org/2000/svg" viewBox="0 0 256 256"><defs><linearGradient id="b" x1="0%" x2="0%" y1="0%" y2="100%"><stop offset="0%" stop-color="#38bdf8"/><stop offset="100%" stop-color="#3b82f6"/></linearGradient><linearGradient id="d" x1="0%" x2="100%" y1="0%" y2="100%"><stop offset="0%" stop-color="#c084fc"/><stop offset="100%" stop-color="#db2777"/></linearGradient><linearGradient id="e" x1="0%" x2="100%" y1="0%" y2="0%"><stop offset="0%" stop-color="#34d399"/><stop offset="100%" stop-color="#10b981"/></linearGradient><filter id="c" width="140%" height="140%" x="-20%" y="-20%"><feGaussianBlur result="blur" stdDeviation="5"/><feMerge><feMergeNode in="blur"/><feMergeNode in="SourceGraphic"/></feMerge></filter><filter id="a" width="140%" height="140%" x="-20%" y="-20%"><feGaussianBlur result="blur" stdDeviation="3"/><feMerge><feMergeNode in="blur"/><feMergeNode in="SourceGraphic"/></feMerge></filter></defs><g stroke="#334155" stroke-dasharray="6 6" stroke-width="2" opacity=".6"><path d="m25 128 103-12M231 128l-103-12M128 24v92M128 200v-84"/></g><g fill="none" stroke="url(#b)" stroke-linecap="round" stroke-linejoin="round" stroke-width="12" filter="url(#a)"><path d="M85 45q-30 0-30 41 0 42-30 42 30 0 30 42 0 41 30 41"/><path d="M171 45q30 0 30 41 0 42 30 42-30 0-30 42 0 41-30 41"/></g><g filter="url(#c)"><circle cx="128" cy="116" r="46" fill="#020617" opacity=".85"/><circle cx="128" cy="116" r="46" fill="none" stroke="url(#d)" stroke-width="10"/><path stroke="url(#d)" stroke-linecap="round" stroke-width="16" d="m160 148 34 34"/><path stroke="#020617" stroke-linecap="round" stroke-width="4" d="m172 160 14 14"/></g><g stroke="url(#e)" stroke-linecap="round" stroke-width="6" filter="url(#a)"><path fill="none" stroke-linejoin="round" d="m106 100 16 16-16 16"/><path d="M130 132h20"/></g><path fill="#f472b6" d="M128 8q0 16 16 16-16 0-16 16 0-16-16-16 16 0 16-16" filter="url(#a)"/><path fill="#38bdf8" d="M216 20q0 10 10 10-10 0-10 10 0-10-10-10 10 0 10-10" filter="url(#a)" opacity=".9"/><path fill="#a78bfa" d="M40 216q0 10 10 10-10 0-10 10 0-10-10-10 10 0 10-10" filter="url(#a)" opacity=".9"/></svg>